<svg width="0" height="0" class="hidden">
  <symbol xmlns="http://www.w3.org/2000/svg" viewBox="0 0 20 19" id="icon-sun">
    <path d="M10 15.635c.33 0 .612.295.612.639v1.89c0 .344-.282.638-.612.638s-.612-.294-.612-.638v-1.89c0-.344.282-.639.612-.639zm-4.488-1.783c.27.262.27.68 0 .941L4.03 16.231a.698.698 0 01-.97 0 .649.649 0 010-.941l1.482-1.438c.27-.261.7-.261.97 0zm9.946 0l1.483 1.438c.27.261.27.68 0 .941a.698.698 0 01-.97 0l-1.483-1.438a.649.649 0 010-.94c.242-.262.674-.262.97 0zM10 4.552c1.396 0 2.685.525 3.598 1.4.913.85 1.504 2.05 1.504 3.35 0 1.3-.59 2.5-1.504 3.35a5.314 5.314 0 01-3.598 1.4c-1.396 0-2.685-.525-3.598-1.4-.913-.85-1.504-2.05-1.504-3.35 0-1.3.564-2.5 1.504-3.35A5.314 5.314 0 0110 4.552zM2.607 8.906c.355 0 .658.274.658.594 0 .32-.303.594-.658.594H.658C.304 10.094 0 9.82 0 9.5c0-.32.304-.594.658-.594h1.95zm16.735 0c.354 0 .658.274.658.594 0 .32-.304.594-.658.594h-1.95c-.354 0-.657-.274-.657-.594 0-.32.303-.594.658-.594h1.949zM4.03 2.77l1.482 1.438c.27.261.27.68 0 .94-.242.262-.674.262-.97 0L3.059 3.71a.649.649 0 010-.941c.27-.261.701-.261.97 0zm12.91 0c.27.261.27.68 0 .941l-1.482 1.438a.698.698 0 01-.97 0 .649.649 0 010-.941l1.482-1.438c.27-.261.701-.261.97 0zM10 .198c.33 0 .612.294.612.638v1.89c0 .344-.282.639-.612.639s-.612-.295-.612-.639V.836c0-.344.282-.638.612-.638z" fill="#FFF" fill-rule="nonzero"></path>
  </symbol>
  <symbol xmlns="http://www.w3.org/2000/svg" viewBox="0 0 17 24" id="icon-location">
    <path d="M14.358 2.451A8.3 8.3 0 008.448 0a8.3 8.3 0 00-5.911 2.451c-2.922 2.925-3.285 8.427-.786 11.76l6.697 9.683 6.687-9.669c2.508-3.347 2.145-8.85-.777-11.774zm-5.833 8.894a3.057 3.057 0 01-3.051-3.054 3.057 3.057 0 013.05-3.055 3.057 3.057 0 013.052 3.055 3.057 3.057 0 01-3.051 3.054z" fill="#5964E0" fill-rule="nonzero"></path>
  </symbol>
  <symbol fill="none" xmlns="http://www.w3.org/2000/svg" viewBox="0 0 1440 160" id="bg-navbar">
    <path d="M1440 0H0v60c0 55.228 44.772 100 100 100h1340V0z" fill="#5964E0"></path>
    <mask id="a" maskUnits="userSpaceOnUse" x="0" y="0" width="1440" height="160">
      <path d="M1440 0H0v60c0 55.228 44.772 100 100 100h1340V0z" fill="#fff"></path>
    </mask>
    <g mask="url(#a)" fill-rule="evenodd" clip-rule="evenodd" fill="#fff">
      <path opacity=".081" d="M1163.89-205.424c21.12-23.963 60.32-15.63 69.88 14.853l114.11 364.163c9.39 29.936-16.96 58.887-47.64 52.364l-366.492-77.899c-30.685-6.522-42.976-43.685-22.23-67.217l252.372-286.264zM254.539-323.259c-3.117-31.792 29.711-54.779 58.52-40.976L657.22-199.336c28.291 13.555 31.498 52.566 5.8 70.56L356.104 86.129c-25.698 17.994-61.259 1.637-64.321-29.584L254.539-323.26zM-71.46 71.741c-3.119-31.792 29.71-54.78 58.52-40.976l344.16 164.899c28.291 13.555 31.498 52.566 5.8 70.56L30.104 481.129c-25.698 17.994-61.26 1.637-64.32-29.584L-71.462 71.741z"></path>
    </g>
  </symbol>
  <symbol xmlns="http://www.w3.org/2000/svg" viewBox="0 0 24 24" id="icon-search">
    <path d="M17.112 15.059h-1.088l-.377-.377a8.814 8.814 0 002.15-5.784A8.898 8.898 0 008.898 0 8.898 8.898 0 000 8.898a8.898 8.898 0 008.898 8.899c2.211 0 4.23-.808 5.784-2.143l.377.377v1.081l6.845 6.832 2.04-2.04-6.832-6.845zm-8.214 0A6.16 6.16 0 118.9 2.737a6.16 6.16 0 010 12.322z" fill="#5964E0" fill-rule="nonzero"></path>
  </symbol>
  <symbol xmlns="http://www.w3.org/2000/svg" viewBox="0 0 12 12" id="icon-moon">
    <path d="M6 0c1.516 0 2.925.566 3.978 1.523A3.979 3.979 0 008 1a4.014 4.014 0 00-2.821 1.179A3.927 3.927 0 004 5c0 1.095.463 2.105 1.179 2.821A3.927 3.927 0 008 9a4.034 4.034 0 003.974-3.548c.017.18.026.364.026.548a6.02 6.02 0 01-1.768 4.232A6.02 6.02 0 016 12a5.89 5.89 0 01-4.232-1.768A6.02 6.02 0 010 6a5.89 5.89 0 011.768-4.232A6.02 6.02 0 016 0z" fill="#FFF" fill-rule="nonzero"></path>
  </symbol>
  <symbol fill="none" xmlns="http://www.w3.org/2000/svg" viewBox="0 0 730 261" id="bg-footer">
    <rect y="1" width="730" height="259" rx="6" fill="#5964E0"></rect>
    <mask id="a" maskUnits="userSpaceOnUse" x="0" y="1" width="730" height="259">
      <rect y="1" width="730" height="259" rx="6" fill="#fff"></rect>
    </mask>
    <g mask="url(#a)">
      <path opacity=".081" fill-rule="evenodd" clip-rule="evenodd" d="M549.888-78.424c21.125-23.963 60.326-15.63 69.879 14.853l114.117 364.163c9.381 29.936-16.962 58.887-47.648 52.364l-366.488-77.899c-30.685-6.522-42.976-43.685-22.23-67.218l252.37-286.263z" fill="#fff"></path>
    </g>
  </symbol>
  <symbol xmlns="http://www.w3.org/2000/svg" viewBox="0 0 15 12" id="icon-check">
    <path d="M1 6.57l3.572 3.572L13.714 1" stroke="#FFF" stroke-width="2" fill="none" fill-rule="evenodd"></path>
  </symbol>
  <symbol fill="none" xmlns="http://www.w3.org/2000/svg" viewBox="0 0 24 24" id="icon-info">
    <path d="M12 17V11" stroke="#f4f6f8" stroke-width="1.5" stroke-linecap="round"></path>
    <circle cx="1" cy="1" r="1" transform="matrix(1 0 0 -1 11 9)" fill="#f4f6f8"></circle>
    <path d="M7 3.33782C8.47087 2.48697 10.1786 2 12 2C17.5228 2 22 6.47715 22 12C22 17.5228 17.5228 22 12 22C6.47715 22 2 17.5228 2 12C2 10.1786 2.48697 8.47087 3.33782 7" stroke="#f4f6f8" stroke-width="1.5" stroke-linecap="round"></path>
  </symbol>
  <symbol fill="none" xmlns="http://www.w3.org/2000/svg" viewBox="0 0 24 24" id="icon-close">
    <path d="M14.5 9.50002L9.5 14.5M9.49998 9.5L14.5 14.5" stroke="#1C274C" stroke-width="1.5" stroke-linecap="round"></path>
    <path d="M7 3.33782C8.47087 2.48697 10.1786 2 12 2C17.5228 2 22 6.47715 22 12C22 17.5228 17.5228 22 12 22C6.47715 22 2 17.5228 2 12C2 10.1786 2.48697 8.47087 3.33782 7" stroke="#1C274C" stroke-width="1.5" stroke-linecap="round"></path>
  </symbol>
  <symbol version="1" xmlns="http://www.w3.org/2000/svg" enable-background="new 0 0 48 48" viewBox="0 0 48 48" id="icon-valid">
    <circle fill="#4CAF50" cx="24" cy="24" r="21"></circle>
    <polygon fill="#CCFF90" points="34.6,14.6 21,28.2 15.4,22.6 12.6,25.4 21,33.8 37.4,17.4"></polygon>
  </symbol>
  <symbol fill="" xmlns="http://www.w3.org/2000/svg" viewBox="0 0 16 16" id="icon-error">
    <path d="M7.493 0.015 C 7.442 0.021,7.268 0.039,7.107 0.055 C 5.234 0.242,3.347 1.208,2.071 2.634 C 0.660 4.211,-0.057 6.168,0.009 8.253 C 0.124 11.854,2.599 14.903,6.110 15.771 C 8.169 16.280,10.433 15.917,12.227 14.791 C 14.017 13.666,15.270 11.933,15.771 9.887 C 15.943 9.186,15.983 8.829,15.983 8.000 C 15.983 7.171,15.943 6.814,15.771 6.113 C 14.979 2.878,12.315 0.498,9.000 0.064 C 8.716 0.027,7.683 -0.006,7.493 0.015 M8.853 1.563 C 9.967 1.707,11.010 2.136,11.944 2.834 C 12.273 3.080,12.920 3.727,13.166 4.056 C 13.727 4.807,14.142 5.690,14.330 6.535 C 14.544 7.500,14.544 8.500,14.330 9.465 C 13.916 11.326,12.605 12.978,10.867 13.828 C 10.239 14.135,9.591 14.336,8.880 14.444 C 8.456 14.509,7.544 14.509,7.120 14.444 C 5.172 14.148,3.528 13.085,2.493 11.451 C 2.279 11.114,1.999 10.526,1.859 10.119 C 1.618 9.422,1.514 8.781,1.514 8.000 C 1.514 6.961,1.715 6.075,2.160 5.160 C 2.500 4.462,2.846 3.980,3.413 3.413 C 3.980 2.846,4.462 2.500,5.160 2.160 C 6.313 1.599,7.567 1.397,8.853 1.563 M7.706 4.290 C 7.482 4.363,7.355 4.491,7.293 4.705 C 7.257 4.827,7.253 5.106,7.259 6.816 C 7.267 8.786,7.267 8.787,7.325 8.896 C 7.398 9.033,7.538 9.157,7.671 9.204 C 7.803 9.250,8.197 9.250,8.329 9.204 C 8.462 9.157,8.602 9.033,8.675 8.896 C 8.733 8.787,8.733 8.786,8.741 6.816 C 8.749 4.664,8.749 4.662,8.596 4.481 C 8.472 4.333,8.339 4.284,8.040 4.276 C 7.893 4.272,7.743 4.278,7.706 4.290 M7.786 10.530 C 7.597 10.592,7.410 10.753,7.319 10.932 C 7.249 11.072,7.237 11.325,7.294 11.495 C 7.388 11.780,7.697 12.000,8.000 12.000 C 8.303 12.000,8.612 11.780,8.706 11.495 C 8.763 11.325,8.751 11.072,8.681 10.932 C 8.616 10.804,8.460 10.646,8.333 10.580 C 8.217 10.520,7.904 10.491,7.786 10.530 " stroke="none" fill-rule="evenodd" fill=""></path>
  </symbol>
  <symbol xmlns="http://www.w3.org/2000/svg" viewBox="0 0 24 24" id="typemaster">
    <g fill="none" fill-rule="evenodd">
      <path fill="#FFF" d="M0 0h24v24H0z"></path>
      <path fill="#F16718" fill-rule="nonzero" d="M6.205 10.2c.11 0 .173-.066.173-.18V5.204c0-.047.027-.076.073-.076h1.466c.11 0 .173-.066.173-.179V3.78c0-.113-.064-.179-.173-.179H3.173c-.11 0-.173.066-.173.18v1.168c0 .113.064.18.173.18h1.42c.046 0 .073.028.073.075v4.818c0 .113.064.179.173.179h1.366zm3.943 0c.109 0 .173-.066.173-.18V6.694c0-.076.054-.085.09-.029l.565.971a.222.222 0 00.21.123h.637a.222.222 0 00.21-.123l.564-.97c.037-.057.091-.048.091.028v3.328c0 .113.064.179.173.179h1.366c.11 0 .173-.066.173-.18V3.78c0-.114-.064-.18-.173-.18H12.87a.222.222 0 00-.21.123l-1.1 1.857c-.028.057-.083.057-.11 0l-1.102-1.857a.222.222 0 00-.21-.123H8.783c-.11 0-.173.066-.173.18v6.24c0 .114.064.18.173.18h1.366z"></path>
    </g>
  </symbol>
  <symbol xmlns="http://www.w3.org/2000/svg" xmlns:xlink="http://www.w3.org/1999/xlink" viewBox="0 0 30 20" id="creative">
    <defs>
      <circle id="a" cx="10" cy="10" r="10"></circle>
    </defs>
    <g fill="none" fill-rule="evenodd">
      <circle cx="20" cy="10" r="10" fill="#5175FF"></circle>
      <mask id="b" fill="#fff">
        <use xlink:href="#a"></use>
      </mask>
      <use fill="#5175FF" xlink:href="#a"></use>
      <circle cx="20" cy="10" r="10" fill="#B4C4FF" mask="url(#b)" opacity=".324"></circle>
    </g>
  </symbol>
  <symbol fill="none" xmlns="http://www.w3.org/2000/svg" viewBox="0 0 327 372" id="officelite">
    <rect width="327" height="372" rx="6" fill="#5964E0"></rect>
    <mask id="a" maskUnits="userSpaceOnUse" x="0" y="0" width="327" height="372">
      <rect width="327" height="372" rx="6" fill="#fff"></rect>
    </mask>
    <g mask="url(#a)">
      <path opacity=".081" fill-rule="evenodd" clip-rule="evenodd" d="M267.502 166.576c21.126-23.963 60.326-15.63 69.879 14.853l114.118 364.163c9.381 29.936-16.963 58.887-47.649 52.364L37.362 520.057c-30.685-6.522-42.976-43.685-22.23-67.217l252.37-286.264z" fill="#fff"></path>
    </g>
  </symbol>
  <symbol xmlns="http://www.w3.org/2000/svg" xmlns:xlink="http://www.w3.org/1999/xlink" viewBox="0 0 375 136" id="bg-pattern-detail-footer">
    <defs>
      <path id="a" d="M0 0h375v136H0z"></path>
    </defs>
    <g fill="none" fill-rule="evenodd">
      <mask id="b" fill="#fff">
        <use xlink:href="#a"></use>
      </mask>
      <use fill="#5964E0" transform="matrix(-1 0 0 1 375 0)" xlink:href="#a"></use>
      <g mask="url(#b)" fill="#FFF" opacity=".081">
        <path d="M313.06-362.235l344.16 164.899c20.42 9.784 29.043 34.27 19.259 54.69a41 41 0 01-13.459 15.87L356.104 88.129c-18.548 12.988-44.114 8.48-57.102-10.069a41 41 0 01-7.219-19.515L254.54-321.26c-2.21-22.535 14.268-42.595 36.803-44.805a41 41 0 0121.717 3.83zM-12.94 32.765l344.16 164.899c20.42 9.784 29.043 34.27 19.259 54.69a41 41 0 01-13.459 15.87L30.104 483.129c-18.548 12.988-44.114 8.48-57.102-10.069a41 41 0 01-7.219-19.515L-71.46 73.74c-2.21-22.535 14.268-42.595 36.803-44.805a41 41 0 0121.717 3.83z"></path>
      </g>
    </g>
  </symbol>
  <symbol xmlns="http://www.w3.org/2000/svg" viewBox="0 0 20 20" id="bg-pattern-header">
    <path d="M19.108 0H.86a.86.86 0 00-.764.455.833.833 0 00.068.884l6.685 9.202.007.01c.242.32.374.708.375 1.107v7.502a.825.825 0 00.248.594.865.865 0 00.942.18l3.756-1.4c.337-.1.56-.41.56-.784v-6.092c0-.399.132-.787.375-1.108l.007-.009 6.685-9.202c.19-.26.217-.6.068-.884A.86.86 0 0019.108 0z" fill="#6E8098" fill-rule="nonzero"></path>
  </symbol>
  <symbol xmlns="http://www.w3.org/2000/svg" viewBox="0 0 26 26" id="icon-filter">
    <g fill="none">
      <path fill="#444" d="M2.558 12.102a1.93 1.93 0 012.605-.113l.123.113 10.142 10.141a1.93 1.93 0 01-2.606 2.841l-.123-.112L2.558 14.83a1.93 1.93 0 010-2.728z"></path>
      <path fill="#FFF" d="M23.182 1.017c1.007-.996 2.707-.34 2.806 1.026l.005.126v10.736c0 .9-.737 1.629-1.647 1.629a1.64 1.64 0 01-1.642-1.507l-.004-.122V6.1l-8.043 7.957c-1.007.995-2.707.34-2.806-1.026l-.005-.126V6.1l-8.043 7.957a1.66 1.66 0 01-2.223.095l-.105-.095a1.616 1.616 0 01-.096-2.2l.096-.104L12.328 1.017c1.007-.996 2.707-.34 2.806 1.026l.005.126v6.804l8.043-7.956z"></path>
    </g>
  </symbol>
  <symbol xmlns="http://www.w3.org/2000/svg" viewBox="0 0 21 17" id="mastercraft">
    <path fill="#FFF" d="M8.207 17c3.215 0 5.935-2.441 5.935-6.42s-2.72-6.398-5.935-6.398c-1.35 0-2.384.34-3.126 1.063V0H0v16.774h4.834v-1.017C5.576 16.593 6.678 17 8.207 17zm-1.214-3.979c-1.125 0-2.002-.836-2.002-2.441s.877-2.42 2.002-2.42c1.124 0 2 .815 2 2.42s-.876 2.441-2 2.441zM18.033 17C19.717 17 21 15.78 21 14.061c0-1.74-1.282-2.893-2.968-2.893s-2.968 1.152-2.968 2.893c0 1.718 1.282 2.939 2.968 2.939z"></path>
  </symbol>
  <symbol xmlns="http://www.w3.org/2000/svg" viewBox="0 0 24 24" id="blogr">
    <path fill="#54E6AF" fill-rule="evenodd" d="M12 0c6.627 0 12 5.373 12 12s-5.373 12-12 12S0 18.627 0 12 5.373 0 12 0zM9.943 5.926c-.658 0-1.182.45-1.277 1.094l-1.005 6.977c-.005.033-.017.118-.137.123-.115.005-.138-.073-.146-.107l-.325-1.431c-.212-.888-1.003-1.527-1.882-1.527a.576.576 0 00-.578.573c0 .316.259.573.578.573.342 0 .666.273.754.636l.324 1.43a1.286 1.286 0 001.326.997 1.283 1.283 0 001.232-1.103l1.005-6.978c.005-.036.016-.111.13-.111l.056.008c.062.02.07.074.074.103l1.41 9.777a1.279 1.279 0 001.297 1.114h.022c.68-.01 1.208-.484 1.284-1.153l.197-1.734a.574.574 0 00-.51-.633.577.577 0 00-.64.505l-.197 1.733c-.004.037-.015.134-.151.136-.135.003-.15-.095-.155-.13L11.217 7.02a1.26 1.26 0 00-1.274-1.095zm4.8 3.925c-.599.016-1.065.439-1.132 1.029l-.245 2.144a.574.574 0 00.51.634.577.577 0 00.64-.505l.245-2.145a.12.12 0 01.002-.01.065.065 0 01.022 0l.002.008.455 2.743a1.23 1.23 0 001.23 1.03c.573 0 1.065-.378 1.205-.935l.001-.007.205-.858c.113-.444.519-.778.946-.778.32 0 .578-.257.578-.573a.576.576 0 00-.578-.573c-.96 0-1.83.694-2.07 1.65l-.002.007-.204.859c-.007.027-.02.064-.087.062-.071-.003-.078-.044-.083-.07l-.454-2.744a1.145 1.145 0 00-1.185-.968z"></path>
  </symbol>
  <symbol xmlns="http://www.w3.org/2000/svg" viewBox="0 0 24 24" id="pod">
    <path fill="#0E8784" d="M22.123 9.378c2.89 2.89 2.387 8.1-1.126 11.613-1.688 1.687-3.813 2.74-5.987 2.965-.29.029-.576.044-.856.044-1.87 0-3.539-.656-4.769-1.886-1.416-1.414-2.07-3.412-1.839-5.625.224-2.173 1.277-4.299 2.964-5.986 3.515-3.512 8.724-4.019 11.613-1.125zm-.18.18c-.961 1.16-1.67 2.482-2.851 3.453-1.257 1.033-2.64 1.41-4.161 1.85-3.338.97-4.988 3.791-5.369 7.075 1.043-1.253 1.808-2.657 3.125-3.663 1.152-.88 2.398-1.227 3.754-1.598 3.411-.936 5.105-3.781 5.502-7.117zM13.49 3.003a10.573 10.573 0 012.165 3.151c-1.68.29-3.308.992-4.75 2.046a7.17 7.17 0 00-1.837-.84c-1.519-.44-2.903-.816-4.16-1.85-1.18-.971-1.889-2.296-2.852-3.454.396 3.336 2.091 6.182 5.502 7.118.576.157 1.128.32 1.666.511-1.626 1.713-2.696 3.8-3.07 5.97A10.607 10.607 0 013 13.491C-.508 9.978-1.014 4.768 1.877 1.878 4.766-1.014 9.975-.51 13.489 3.003z"></path>
  </symbol>
  <symbol xmlns="http://www.w3.org/2000/svg" viewBox="0 0 34 7" id="coffeeroasters">
    <path fill="#D7E0FF" d="M1 7V4.904a1.64 1.64 0 001.109.416 1.624 1.624 0 001.472-.884c.146-.274.22-.586.22-.936 0-.35-.074-.662-.22-.936a1.624 1.624 0 00-1.473-.884c-.224 0-.434.04-.628.117a1.552 1.552 0 00-.51.331L.944 1.75H0V7h1zm.883-2.555a.825.825 0 01-.632-.27A.955.955 0 011 3.5c0-.27.083-.496.25-.675a.825.825 0 01.632-.27c.254 0 .465.09.632.27.167.18.25.404.25.675 0 .27-.083.496-.25.676a.825.825 0 01-.632.269zm4.189.875c.357 0 .674-.079.952-.236.278-.158.497-.374.658-.648.16-.274.241-.586.241-.936 0-.35-.08-.662-.241-.936-.161-.274-.38-.49-.658-.648a1.896 1.896 0 00-.952-.236c-.357 0-.675.079-.954.236a1.748 1.748 0 00-.66.648c-.16.274-.241.586-.241.936 0 .35.08.662.241.936.161.274.381.49.66.648.28.157.597.236.954.236zm0-.875a.825.825 0 01-.632-.27.955.955 0 01-.25-.675c0-.27.083-.496.25-.675a.825.825 0 01.632-.27c.255 0 .465.09.632.27.167.18.25.404.25.675 0 .27-.083.496-.25.676a.825.825 0 01-.632.269zm3.512.805V3.392c0-.278.063-.487.19-.627a.602.602 0 01.463-.21c.178 0 .33.068.457.203.126.135.189.338.189.609V5.25h1V3.392c0-.278.064-.487.191-.627a.602.602 0 01.462-.21c.179 0 .33.068.457.203.126.135.19.338.19.609V5.25h1V3.367c0-.53-.117-.943-.351-1.24-.234-.298-.562-.447-.983-.447-.266 0-.498.06-.695.179-.197.119-.353.289-.469.51-.222-.46-.6-.689-1.136-.689-.419 0-.751.147-.996.441l-.025-.371h-.945v3.5h1zm7.044.07c.357 0 .674-.079.952-.236.278-.158.497-.374.658-.648.161-.274.242-.586.242-.936 0-.35-.08-.662-.242-.936-.16-.274-.38-.49-.658-.648a1.896 1.896 0 00-.952-.236c-.356 0-.674.079-.953.236a1.748 1.748 0 00-.66.648c-.161.274-.242.586-.242.936 0 .35.08.662.242.936.16.274.38.49.66.648.279.157.597.236.953.236zm0-.875a.825.825 0 01-.632-.27.955.955 0 01-.25-.675c0-.27.083-.496.25-.675a.825.825 0 01.632-.27c.255 0 .466.09.633.27.166.18.25.404.25.675 0 .27-.084.496-.25.676a.825.825 0 01-.633.269zm3.96.875c.227 0 .437-.04.63-.117.194-.078.364-.189.51-.331l.024.378h.945V0h-1v2.096a1.64 1.64 0 00-1.109-.416 1.626 1.626 0 00-1.473.884 1.962 1.962 0 00-.218.936c0 .35.073.662.218.936a1.626 1.626 0 001.473.884zm.226-.875a.825.825 0 01-.632-.27.955.955 0 01-.25-.675c0-.27.083-.496.25-.675a.825.825 0 01.632-.27c.255 0 .466.09.632.27.167.18.25.404.25.675 0 .27-.083.496-.25.676a.825.825 0 01-.632.269zm4.398.875c.356 0 .674-.079.951-.236.278-.158.498-.374.659-.648.16-.274.241-.586.241-.936 0-.35-.08-.662-.241-.936-.161-.274-.38-.49-.659-.648a1.896 1.896 0 00-.951-.236c-.357 0-.675.079-.954.236a1.748 1.748 0 00-.66.648c-.16.274-.241.586-.241.936 0 .35.08.662.241.936.161.274.381.49.66.648.28.157.597.236.954.236zm0-.875a.825.825 0 01-.633-.27.955.955 0 01-.25-.675c0-.27.084-.496.25-.675a.825.825 0 01.633-.27c.254 0 .465.09.632.27.167.18.25.404.25.675 0 .27-.083.496-.25.676a.825.825 0 01-.632.269zm3.512.805V3.707c0-.37.082-.653.246-.853a.8.8 0 01.65-.299c.13 0 .261.022.396.067l.139-.872a1.657 1.657 0 00-.466-.07c-.442 0-.79.19-1.042.57l-.049-.5h-.875v3.5h1zm3.425.07c.356 0 .673-.079.951-.236.278-.158.498-.374.659-.648.16-.274.241-.586.241-.936 0-.35-.08-.662-.241-.936-.161-.274-.38-.49-.659-.648a1.896 1.896 0 00-.951-.236c-.357 0-.675.079-.954.236a1.748 1.748 0 00-.66.648c-.16.274-.241.586-.241.936 0 .35.08.662.241.936.161.274.381.49.66.648.28.157.597.236.954.236zm0-.875a.825.825 0 01-.633-.27.955.955 0 01-.25-.675c0-.27.084-.496.25-.675a.825.825 0 01.633-.27c.254 0 .465.09.632.27.166.18.25.404.25.675 0 .27-.084.496-.25.676a.825.825 0 01-.632.269z"></path>
  </symbol>
  <symbol xmlns="http://www.w3.org/2000/svg" viewBox="0 0 38 3" id="pomodoro">
    <path fill="#FFF" d="M3.229 2.912L4.913.088h-1.22L2.466 2.383 1.237.088H0l1.702 2.824h1.527zm7.88 0v-.838H7.775V1.72h2.72v-.442h-2.72V.926h3.326V.088H6.679v2.824h4.43zM15.652 3c.555 0 1.015-.047 1.38-.141.364-.094.64-.235.826-.424.188-.188.288-.422.303-.701h-1.14a.556.556 0 01-.194.214 1.134 1.134 0 01-.418.156 3.928 3.928 0 01-.757.058c-.375 0-.679-.022-.913-.066-.234-.045-.405-.114-.513-.208a.463.463 0 01-.162-.366c0-.165.054-.297.162-.397.108-.1.28-.173.513-.218.234-.046.538-.069.913-.069.319 0 .572.02.759.062.187.041.327.098.42.17a.565.565 0 01.194.25h1.14a1.092 1.092 0 00-.302-.72c-.187-.197-.464-.346-.83-.448C16.669.051 16.208 0 15.653 0c-.424 0-.804.025-1.14.075-.337.05-.624.133-.86.25a1.316 1.316 0 00-.544.467c-.126.196-.19.439-.19.73s.064.532.19.724c.125.19.307.341.543.452.237.11.524.188.86.234.337.045.717.068 1.14.068zm7.02-.088V.926h1.734V.088h-4.563v.838h1.733v1.986h1.097zM28.607 3c.637 0 1.15-.057 1.54-.17.389-.113.671-.28.848-.503.177-.222.266-.498.266-.827 0-.33-.089-.605-.266-.827-.177-.222-.46-.39-.848-.503-.39-.113-.903-.17-1.54-.17-.638 0-1.151.057-1.54.17-.389.113-.672.28-.849.503-.177.222-.265.498-.265.827 0 .33.088.605.265.827.177.222.46.39.85.503.388.113.901.17 1.539.17zm0-.838c-.301 0-.565-.019-.792-.055-.227-.037-.404-.103-.53-.199a.48.48 0 01-.192-.408.48.48 0 01.191-.408c.127-.096.304-.162.531-.199.227-.036.49-.055.792-.055.301 0 .561.019.78.055.22.037.39.103.51.199.12.095.18.232.18.408 0 .176-.06.313-.18.408-.12.096-.29.162-.51.199-.219.036-.479.055-.78.055zm5.692.75v-.794h1.715c.234 0 .407.008.52.026.112.018.185.05.219.095.034.046.05.112.05.2v.473H37.9v-.605c0-.13-.037-.228-.112-.297-.074-.07-.206-.117-.395-.144a2.963 2.963 0 00-.11-.013l-.039-.004.077-.014c.105-.02.201-.052.288-.094l.063-.034a.63.63 0 00.241-.247A.823.823 0 0038 1.06c0-.244-.062-.437-.186-.578a1.027 1.027 0 00-.505-.302 2.623 2.623 0 00-.717-.09H33.2v2.823h1.097zm2.294-1.531h-2.294V.97h2.294c.088 0 .161.014.221.041.06.028.09.08.09.157 0 .082-.03.138-.09.168a.5.5 0 01-.221.044z"></path>
  </symbol>
  <symbol xmlns="http://www.w3.org/2000/svg" viewBox="0 0 22 22" id="vector">
    <path fill="#3EE9E5" fill-rule="evenodd" d="M10.057 0c5.01 0 9.166 3.664 9.931 8.46a8.172 8.172 0 01-11.53 11.528C3.664 19.221 0 15.067 0 10.057 0 4.502 4.503 0 10.057 0zm3.757 5.657a8.171 8.171 0 00-5.356 14.33 10.083 10.083 0 002.421.094 6.914 6.914 0 119.202-9.203 10.06 10.06 0 01-9.202 9.203 6.914 6.914 0 009.202-9.203 10.252 10.252 0 00-.093-2.418 8.15 8.15 0 00-6.174-2.803z"></path>
  </symbol>
  <symbol fill="none" xmlns="http://www.w3.org/2000/svg" viewBox="0 0 768 160" id="maker">
    <path d="M768 0H0V60C0 115.228 44.7715 160 100 160H768V0Z" fill="#5964E0"></path>
    <mask id="mask0" maskType="alpha" maskUnits="userSpaceOnUse" x="0" y="0" width="768" height="160">
      <path d="M768 0H0V60C0 115.228 44.7715 160 100 160H768V0Z" fill="white"></path>
    </mask>
    <g mask="url(#mask0)">
      <path opacity="0.0813802" fill-rule="evenodd" clip-rule="evenodd" d="M254.539 -323.259C251.422 -355.051 284.25 -378.038 313.059 -364.235L657.22 -199.337C685.511 -185.781 688.718 -146.77 663.02 -128.776L356.104 86.1286C330.406 104.122 294.845 87.766 291.783 56.5447L254.539 -323.259Z" fill="white"></path>
      <path opacity="0.0813802" fill-rule="evenodd" clip-rule="evenodd" d="M-71.4608 71.7412C-74.5785 39.9487 -41.7496 16.9617 -12.9407 30.765L331.22 195.663C359.511 209.219 362.718 248.23 337.02 266.224L30.1041 481.129C4.40643 499.122 -31.1552 482.766 -34.2168 451.545L-71.4608 71.7412Z" fill="white"></path>
    </g>
  </symbol>
  <symbol fill="none" xmlns="http://www.w3.org/2000/svg" viewBox="0 0 24 24" id="icon-eye">
    <path fill-rule="evenodd" clip-rule="evenodd" d="M6.30147 15.5771C4.77832 14.2684 3.6904 12.7726 3.18002 12C3.6904 11.2274 4.77832 9.73158 6.30147 8.42294C7.87402 7.07185 9.81574 6 12 6C14.1843 6 16.1261 7.07185 17.6986 8.42294C19.2218 9.73158 20.3097 11.2274 20.8201 12C20.3097 12.7726 19.2218 14.2684 17.6986 15.5771C16.1261 16.9282 14.1843 18 12 18C9.81574 18 7.87402 16.9282 6.30147 15.5771ZM12 4C9.14754 4 6.75717 5.39462 4.99812 6.90595C3.23268 8.42276 2.00757 10.1376 1.46387 10.9698C1.05306 11.5985 1.05306 12.4015 1.46387 13.0302C2.00757 13.8624 3.23268 15.5772 4.99812 17.0941C6.75717 18.6054 9.14754 20 12 20C14.8525 20 17.2429 18.6054 19.002 17.0941C20.7674 15.5772 21.9925 13.8624 22.5362 13.0302C22.947 12.4015 22.947 11.5985 22.5362 10.9698C21.9925 10.1376 20.7674 8.42276 19.002 6.90595C17.2429 5.39462 14.8525 4 12 4ZM10 12C10 10.8954 10.8955 10 12 10C13.1046 10 14 10.8954 14 12C14 13.1046 13.1046 14 12 14C10.8955 14 10 13.1046 10 12ZM12 8C9.7909 8 8.00004 9.79086 8.00004 12C8.00004 14.2091 9.7909 16 12 16C14.2092 16 16 14.2091 16 12C16 9.79086 14.2092 8 12 8Z" fill="#000000"></path>
  </symbol>
  <symbol fill="none" xmlns="http://www.w3.org/2000/svg" viewBox="0 0 24 24" id="icon-eye-crossed">
    <path fill-rule="evenodd" clip-rule="evenodd" d="M19.7071 5.70711C20.0976 5.31658 20.0976 4.68342 19.7071 4.29289C19.3166 3.90237 18.6834 3.90237 18.2929 4.29289L14.032 8.55382C13.4365 8.20193 12.7418 8 12 8C9.79086 8 8 9.79086 8 12C8 12.7418 8.20193 13.4365 8.55382 14.032L4.29289 18.2929C3.90237 18.6834 3.90237 19.3166 4.29289 19.7071C4.68342 20.0976 5.31658 20.0976 5.70711 19.7071L9.96803 15.4462C10.5635 15.7981 11.2582 16 12 16C14.2091 16 16 14.2091 16 12C16 11.2582 15.7981 10.5635 15.4462 9.96803L19.7071 5.70711ZM12.518 10.0677C12.3528 10.0236 12.1792 10 12 10C10.8954 10 10 10.8954 10 12C10 12.1792 10.0236 12.3528 10.0677 12.518L12.518 10.0677ZM11.482 13.9323L13.9323 11.482C13.9764 11.6472 14 11.8208 14 12C14 13.1046 13.1046 14 12 14C11.8208 14 11.6472 13.9764 11.482 13.9323ZM15.7651 4.8207C14.6287 4.32049 13.3675 4 12 4C9.14754 4 6.75717 5.39462 4.99812 6.90595C3.23268 8.42276 2.00757 10.1376 1.46387 10.9698C1.05306 11.5985 1.05306 12.4015 1.46387 13.0302C1.92276 13.7326 2.86706 15.0637 4.21194 16.3739L5.62626 14.9596C4.4555 13.8229 3.61144 12.6531 3.18002 12C3.6904 11.2274 4.77832 9.73158 6.30147 8.42294C7.87402 7.07185 9.81574 6 12 6C12.7719 6 13.5135 6.13385 14.2193 6.36658L15.7651 4.8207ZM12 18C11.2282 18 10.4866 17.8661 9.78083 17.6334L8.23496 19.1793C9.37136 19.6795 10.6326 20 12 20C14.8525 20 17.2429 18.6054 19.002 17.0941C20.7674 15.5772 21.9925 13.8624 22.5362 13.0302C22.947 12.4015 22.947 11.5985 22.5362 10.9698C22.0773 10.2674 21.133 8.93627 19.7881 7.62611L18.3738 9.04043C19.5446 10.1771 20.3887 11.3469 20.8201 12C20.3097 12.7726 19.2218 14.2684 17.6986 15.5771C16.1261 16.9282 14.1843 18 12 18Z" fill="#000000"></path>
  </symbol>
</svg>